<?xml version="1.0" encoding="utf-8"?>
<!-- Generator: Adobe Illustrator 16.0.0, SVG Export Plug-In . SVG Version: 6.00 Build 0)  -->
<!DOCTYPE svg PUBLIC "-//W3C//DTD SVG 1.1//EN" "http://www.w3.org/Graphics/SVG/1.1/DTD/svg11.dtd" [
	<!ENTITY ns_flows "http://ns.adobe.com/Flows/1.0/">
	<!ENTITY ns_extend "http://ns.adobe.com/Extensibility/1.0/">
	<!ENTITY ns_ai "http://ns.adobe.com/AdobeIllustrator/10.0/">
	<!ENTITY ns_graphs "http://ns.adobe.com/Graphs/1.0/">
	<!ENTITY ns_vars "http://ns.adobe.com/Variables/1.0/">
	<!ENTITY ns_imrep "http://ns.adobe.com/ImageReplacement/1.0/">
	<!ENTITY ns_sfw "http://ns.adobe.com/SaveForWeb/1.0/">
	<!ENTITY ns_custom "http://ns.adobe.com/GenericCustomNamespace/1.0/">
	<!ENTITY ns_adobe_xpath "http://ns.adobe.com/XPath/1.0/">
]>
<svg version="1.1" id="Layer_1" xmlns:x="&ns_extend;" xmlns:i="&ns_ai;" xmlns:graph="&ns_graphs;"
	 xmlns="http://www.w3.org/2000/svg" xmlns:xlink="http://www.w3.org/1999/xlink" xmlns:a="http://ns.adobe.com/AdobeSVGViewerExtensions/3.0/"
	 x="0px" y="0px" width="750px" height="750px" viewBox="0 0 750 750" enable-background="new 0 0 750 750" xml:space="preserve">
<metadata>
	<sfw  xmlns="&ns_sfw;">
		<slices></slices>
		<sliceSourceBounds  height="646" width="498.5" y="-698" x="989.1" bottomLeftOrigin="true"></sliceSourceBounds>
	</sfw>
</metadata>
<g>
	<path fill="#F3C170" d="M171.1,605.4c-16.9,0-30.6-13.7-30.6-30.6c0-16.9,13.7-30.6,30.6-30.6c16.8,0,31.6,14.7,31.6,31.6
		C202.7,592.1,188.5,605.4,171.1,605.4z M128.6,591.1l8.2-4.4c-1-2.8-1.6-5.8-1.9-8.9l-9.2,0.6C126,582.9,127,587.1,128.6,591.1z
		 M140.1,607.4l5.2-7c-2.5-2.5-4.6-5.3-6.3-8.4l-8,4.3C133.4,600.5,136.5,604.2,140.1,607.4z M140.1,555.9c2.5-4.1,5.9-7.7,9.8-10.6
		l-5.4-7.1c-4.8,3.7-8.9,8.3-12.1,13.5L140.1,555.9z M125.7,572.6l9.1-0.6c0.3-3.9,1.2-7.6,2.6-11.1l-7.7-4.2
		C127.5,561.8,126.1,567.1,125.7,572.6z M154.9,542.3c4-2,8.5-3.3,13.2-3.7l-0.4-9.4c-6.5,0.5-12.7,2.5-18.3,5.7L154.9,542.3z
		 M160.9,609.7c-4-1.2-7.8-3.1-11.1-5.5l-5.1,6.8c4.4,3,9.3,5.2,14.7,6.6L160.9,609.7z M180.7,618.1l-2.5-7.7
		c-2.3,0.4-4.7,0.7-7.1,0.7c-1.6,0-3.1-0.1-4.6-0.3l-1.5,7.8c2,0.3,4,0.4,6.1,0.4C174.4,619.1,177.6,618.8,180.7,618.1z M183.8,609
		l2.5,7.7c5.5-1.8,10.5-4.5,14.8-8l-6.1-5.8C191.7,605.5,187.9,607.6,183.8,609z M217.1,576.2c0-4.2-0.7-8.3-1.9-12.3l-8.1,2.5
		c0.8,3,1.3,6.1,1.3,9.3c0,2.1-0.2,4.1-0.6,6l8.1,3.8C216.7,582.5,217.1,579.4,217.1,576.2z M214.2,591.1l-7.9-3.7
		c-1.6,4.3-4,8.2-7.1,11.5l6.1,5.8C209.1,600.8,212.2,596.2,214.2,591.1z M205.3,561l8-2.5c-3.1-7-7.9-13.4-13.8-18.3l-4.8,6.9
		C199.2,550.8,202.8,555.6,205.3,561z M173.9,538.6c5.8,0.5,11.3,2.3,16.1,5.2l4.9-7c-6.4-4.2-13.7-7-21.4-7.5L173.9,538.6z"/>
	<path fill="#C0655A" d="M589.2,504.5c-4.7,5.1-14.6-1.4-14.6-1.4s6.9,10.9,0.7,17.1c-6.2,6.2-26.3-3.2-26.3-3.2
		c5.5,6.9,2.8,12.5,2.8,12.5c-7.6,9-25.7-3.5-25.7-3.5c1.4,10.4-8.3,7.6-8.3,7.6c-12.9-4.3-23.9-10.5-33.4-17.9
		c1.3,0.2,2.6,0.3,3.9,0.3c2.7,0,5.5-0.5,8.3-1.6c8.4-3.5,10.8-12,11.4-18.2c5.5,4.8,14.9,11,23.8,7.8c9.3-3.3,11-13.8,11.1-20.5
		c5.2,3,13.5,6.6,20.6,3.6c7.2-3,9.3-10.7,9.5-17.8C585.1,487.6,592.9,500.5,589.2,504.5z M232.8,539.7c0,0-10.5-12-22.1-32.6
		c-2.9,6.6-7.1,10.7-12.3,12.1c-1.4,0.4-2.7,0.5-4,0.5c-1,0-1.9-0.1-2.9-0.2c4.8,4.7,9.9,9,15.4,12.8
		C206.9,532.3,236.5,556.3,232.8,539.7z"/>
	<path fill="#5A595F" d="M243.6,189.8c33.6-25,71-26.3,71-26.3s45.8-4.2,79,6.9c13.8,4.6,25.8,10.4,36.4,17.1
		c-23-1.9-54.6-3.8-89-3.8C305,183.7,272.3,185.7,243.6,189.8z M231.6,525.9c2.1,2.6,4.2,5.2,6.4,7.7c3.5,3.5,7.9,7.6,12.1,10.1
		c5.5,3.3,12.9,3.1,22.1-0.6c8.6-3.4,14.6-13.7,14.6-13.8c0.6-1,1.7-1.5,2.8-1.4c1.1,0.2,2,1,2.3,2.1c0.1,0.6,2.3,9.7,9.7,14.9
		c2.4,0.1,4.7,0.5,6.8,1.1c2.1,0.7,3.6,1.6,4.8,2.6c1.2,0,2.5,0,3.8-0.2c13.3-1.7,21.4-11.3,21.5-11.4c0.6-0.7,1.5-1.1,2.5-1
		c0.9,0.1,1.8,0.7,2.2,1.6c0.3,0.6,7.7,15.5,26,15.3c18.1-0.2,23.2-11.1,23.4-11.6c0.4-0.9,1.3-1.6,2.3-1.7c1-0.1,2,0.4,2.6,1.3
		c0.1,0.1,9.3,14.1,25.1,13.7c15.5-0.3,20.9-15.9,20.9-16.1c0.3-0.9,1-1.6,1.9-1.8c0.9-0.2,1.9,0,2.6,0.6
		c0.1,0.1,10.7,9.7,24.7,10.3c13.7,0.7,23.9-14.4,24-14.5c0.2-0.3,0.5-0.6,0.9-0.8c-15-7.9-27.9-18.9-38.1-32.3
		c-5.1,4.9-13.1,10.7-23,10.2c-11.5-0.5-20.8-6.1-25.3-9.4c-2.9,5.6-10.3,16.1-24.5,16.3c-0.2,0-0.4,0-0.7,0
		c-13.4,0-22.5-8.2-26.7-13c-3.4,4.4-11.1,11-26.1,11.2c-16.4,0.1-25.4-9.8-29.1-15.2c-3.8,3.5-11.6,9.3-22.4,10.7
		c-17.8,2.2-26-9.9-29.4-17.3c-3,3.8-7.9,9-14.2,11.5c-7,2.8-13.2,3.8-18.6,3.1c3.6,5.9,7.5,11.6,11.7,17.1
		C231.4,525.5,231.5,525.7,231.6,525.9z M209.8,451.6c8.6-3.4,14.6-13.7,14.6-13.8c0.6-1,1.7-1.5,2.8-1.4c1.1,0.2,2,1,2.3,2.1
		c0.2,0.9,5,21,25.2,18.4c13.3-1.7,21.4-11.3,21.5-11.4c0.6-0.7,1.5-1.1,2.5-1c0.9,0.1,1.8,0.7,2.2,1.6c0.3,0.6,7.8,15.5,26,15.3
		c18.1-0.2,23.2-11.1,23.4-11.6c0.4-0.9,1.3-1.6,2.3-1.7c1-0.1,2,0.4,2.6,1.3c0.1,0.1,9.1,13.7,24.6,13.7c0.2,0,0.3,0,0.5,0
		c15.5-0.3,20.9-15.9,20.9-16.1c0.3-0.9,1-1.6,1.9-1.8c0.9-0.2,1.9,0,2.6,0.6c0.1,0.1,10.7,9.7,24.7,10.3
		c13.7,0.7,24.8-15.3,25.3-15.5c-1.1-9.6-1.1-19.1,0.2-28.1c-4.8,3.5-11.1,6.5-18.3,6.2c-11.5-0.6-20.8-6.2-25.3-9.4
		c-2.9,5.6-10.3,16.1-24.5,16.3c-0.2,0-0.4,0-0.6,0c-13.4,0-22.5-8.2-26.7-13c-3.4,4.4-11.1,11-26.1,11.2
		c-16.3,0.2-25.4-9.8-29.1-15.2c-3.8,3.5-11.6,9.3-22.4,10.7c-17.8,2.2-26-9.9-29.4-17.3c-3,3.8-7.9,9-14.2,11.5
		c-10.9,4.4-20,4.4-27,0.2c-2.1-1.2-3.8-2.7-5.2-4.4c2.1,15.2,5.1,30.3,9.4,44.9C200.3,454.5,204.8,453.5,209.8,451.6z"/>
	<path fill="#8BB5C6" d="M150.2,446c-6.6-22.5-8.4-43.4-6.1-56.1c5.5-30.5,32.4-25,32.4-25s1.4,43.1,8.7,76.3l-11.4-6.5
		c-0.7-0.4-1.6-0.5-2.3-0.2c-0.8,0.3-1.4,0.9-1.7,1.7l-5.5,15.3l-13.5-5.4C150.6,446,150.4,446,150.2,446z M450.6,444.3
		c0.3-0.7,0.9-1.3,1.7-1.5c0.8-0.2,1.6-0.1,2.2,0.3l17.7,10.6l8.2-18.4c0.6-1.3,2-2,3.4-1.5l17.9,5.8l5.7-18.8
		c0.4-1.4,1.9-2.3,3.4-1.9l15.8,4.3l4.9-18.5c-8.5-15.3-16-31.1-20.6-46.5c0,0-47.8-2.8-63.8,38.1c-6.4,16.3-7.2,37.8-1.6,59.2
		L450.6,444.3z M476.2,229.3l-17.9,21c-7.8-1.1-15.5-2.1-23.1-3l-15.4-22.7c-0.4-0.6-1-0.9-1.7-1c-0.7-0.1-1.4,0.1-1.9,0.6
		l-20.9,19.6c-8.5-0.5-16.9-0.9-25.2-1.2c0,0,0,0,0,0L353,223.4c-0.9-1-2.6-1-3.5,0l-16.8,18.8c-9.2,0.1-18.1,0.4-26.6,0.7
		l-17.8-18.2c-0.5-0.5-1.1-0.7-1.8-0.7c-0.7,0-1.3,0.4-1.7,0.9l-16.4,20.5c-9.5,0.8-18.2,1.7-26.1,2.6L222.5,229
		c-0.5-0.5-1.3-0.7-2-0.6c-0.7,0.1-1.4,0.6-1.7,1.2l-12.1,23.3c-5.5,0.9-8.5,1.6-8.5,1.6c5.5-23.1,21.3-53.6,21.3-53.6
		c3.4-0.7,6.9-1.3,10.4-1.9l21.4,20.3c0.4,0.4,1,0.6,1.6,0.6c0.1,0,0.1,0,0.2,0c0.7-0.1,1.3-0.4,1.7-0.9l19.8-25.6
		c7.5-0.6,15-1.1,22.4-1.5l20.5,22.8c0.4,0.5,1.1,0.8,1.8,0.8c0,0,0.1,0,0.1,0c0.7,0,1.4-0.4,1.8-0.9l18-23.8c7.6,0,15,0.1,22.3,0.2
		l21.4,24.1c0.4,0.5,1.1,0.8,1.7,0.8c0,0,0,0,0,0c0.6,0,1.3-0.3,1.7-0.7l21.4-22.2c8.2,0.5,15.8,1.1,22.6,1.6l16.3,24.7
		c0.4,0.6,1.1,1,1.8,1.1c0.1,0,0.1,0,0.2,0c0.7,0,1.3-0.3,1.8-0.8l16.9-19C468.9,205.6,472.7,217.8,476.2,229.3z M466.4,223.1
		c1.1-1.3,1-3.2-0.3-4.3c-1.3-1.1-3.2-0.9-4.3,0.3l-14.5,16.9l-25.6-36.5c-0.5-0.7-1.3-1.2-2.2-1.3c-0.9-0.1-1.8,0.2-2.4,0.8
		l-33.2,31.5c-7.8-8.6-30.2-32.6-31.2-33.8c-0.6-0.7-1.5-1-2.4-1c-0.9,0-1.7,0.5-2.3,1.2c-1.5,1.9-19.6,22.4-28.7,32.6
		c-8.4-8-31-31.1-31.2-31.4c-0.6-0.6-1.3-0.9-2.2-0.9c-0.8,0-1.6,0.3-2.2,0.9c-4.2,4.1-22.9,28.5-29.2,36.8l-26.5-25.3
		c-1.2-1.2-3.2-1.1-4.3,0.1c-1.2,1.2-1.1,3.1,0.1,4.3l29,27.7c0.6,0.6,1.5,0.9,2.3,0.8c0.9-0.1,1.7-0.5,2.2-1.2
		c6.3-8.4,22.2-29.1,28.6-36.5c6.8,7,26.8,27.4,31.6,31.5c1.3,1.1,3.2,1,4.3-0.3c1-1.1,21.5-24.2,28.7-32.5
		c7,7.5,27.5,29.6,30.9,33.5c0.5,0.6,1.3,1,2.2,1c0.8,0.1,1.6-0.3,2.2-0.8l32.9-31.3l25.8,36.9c0.5,0.8,1.4,1.3,2.4,1.3
		c0,0,0.1,0,0.1,0c0.9,0,1.7-0.4,2.3-1.1L466.4,223.1z M388.9,135.2c2.1-6.7,4.6-14.1,7.4-21.9c-4.2-5.1-6.9-14.3-8.5-21
		c-4.9,7.6-8.3,15.8-10.7,23.8C378,118.2,382.9,129.2,388.9,135.2z M381.5,159.7c1.1-3.9,3-10.3,5.5-18.3c-5-4.1-9.3-11.1-12.1-16.5
		c-3.7,16.7-3.3,31.3-3.3,33.1C374.9,158.4,378.2,159,381.5,159.7z M397.7,163.9c1.4,0.5,2.8,1,4.1,1.5c5.6-7.7,12.9-19.8,12.9-19.8
		l-9.6-6.7l14.7-3.3c0,0,1.2-2.7,1.7-4c3.7-9,5.7-17.2,6.6-24.5c-9.3,5.7-21.3,7.6-26.2,8.1c-7.1,19.9-12.4,37.9-14.7,45.7
		C390.8,161.8,394.3,162.8,397.7,163.9z M274.4,117.9c2.1,6,4,11.7,5.7,17c4.4-4.8,9.7-14.1,12.7-19.9c-2.2-6.9-5.1-13.9-9.2-20.4
		C282.1,101.5,279.2,112.3,274.4,117.9z M258.9,151.4c7.4-0.2,15.3-0.6,19.9-1.1c-2.4-7.9-5.9-19-10.1-31
		c-5.1-0.5-16.5-2.2-25.6-6.8c1.1,6,3,12.5,5.8,19.6c0.5,1.3,1.7,4,1.7,4l14.7,3.3l-9.6,6.7C255.6,146.1,256.9,148.3,258.9,151.4z
		 M298.9,157.9c0-3.5,0-18.4-3.9-34.8c-3.5,6.3-8.5,14.3-12.9,18c3.1,9.9,5.1,17.1,5.7,19.2C291.9,159.2,295.6,158.5,298.9,157.9z
		 M282.1,161.8c-0.3-0.9-0.8-3-1.7-5.8c-4.8,0.6-12.3,1-17.9,1.2c2,3.2,4.3,6.4,6.2,9.1C273.4,164.5,277.9,163,282.1,161.8z"/>
	<path fill="#E7806F" d="M182.4,509.3c-13.8-16.9-23.7-37.1-30.1-56.6l12.6,5c0.3,0.1,0.7,0.2,1,0.2c0.4,0,0.8-0.1,1.1-0.2
		c0.7-0.3,1.2-0.9,1.5-1.6l5.4-14.9l13.1,7.5c5.2,20.2,12.8,37.9,20.3,52.1c-0.1,0.1-0.2,0.2-0.2,0.4c-2.4,7.3-5.7,11.5-10,12.7
		C191.3,515.3,185.1,511.3,182.4,509.3z M341.1,366.9l10.6-16c-7.5-1.4-23.2,0.3-23.2,0.3L341.1,366.9z M504,465.3l6.2,3.7l2.7-7
		l-6.2-2.9L504,465.3z M561.4,482.1c-6.5,2.7-16.6-3.5-19.9-6.1c-0.9-0.7-2.1-0.8-3.1-0.2c-1,0.6-1.5,1.7-1.3,2.8
		c0,0.2,2.4,16.9-7.1,20.3c-8.2,2.9-19.1-7-22.6-11c-0.8-0.9-2.1-1.2-3.2-0.7c-1.1,0.5-1.8,1.7-1.6,2.9c0,0.2,1.7,15.3-8,19.3
		c-8.7,3.6-18.1-1.8-22.5-4.9c-11.3-12.2-19.3-26.3-24.2-40.9l6.5-14.2l17.7,10.7c0.7,0.4,1.5,0.5,2.3,0.3c0.8-0.2,1.4-0.8,1.7-1.5
		l8.5-19l18.2,5.9c0.7,0.2,1.5,0.2,2.1-0.2c0.7-0.3,1.2-0.9,1.4-1.7l5.7-18.9l15.9,4.4c0.7,0.2,1.5,0.1,2.1-0.3
		c0.6-0.4,1.1-1,1.3-1.7l4.2-15.8c10.3,17.6,21.7,34.3,31.4,48.6C567.7,465.9,569,479,561.4,482.1z M485,486.6l-11.8-4.9l3.7-12.7
		c0.4-1.5-0.4-3-1.9-3.4c-1.5-0.4-3,0.4-3.4,1.9l-4.4,15.1c-0.4,1.4,0.3,2.8,1.6,3.3l14.1,5.8c0.3,0.1,0.7,0.2,1.1,0.2
		c1.1,0,2.1-0.6,2.6-1.7C487.1,488.9,486.4,487.2,485,486.6z M500.2,479l-11.8-4.9l3.7-12.7c0.4-1.5-0.4-3-1.9-3.4
		c-1.5-0.4-3,0.4-3.4,1.9l-4.4,15.1c-0.4,1.4,0.3,2.8,1.6,3.3l14,5.8c0.3,0.1,0.7,0.2,1.1,0.2c1.1,0,2.1-0.6,2.6-1.7
		C502.3,481.2,501.6,479.6,500.2,479z M517.6,458l-11.1-5.2c-0.7-0.3-1.4-0.3-2.2-0.1c-0.7,0.3-1.3,0.8-1.6,1.5l-4.9,11.1
		c-0.6,1.3-0.1,2.8,1.1,3.5l11.1,6.6c0.4,0.3,0.9,0.4,1.4,0.4c0.3,0,0.6-0.1,0.9-0.2c0.8-0.3,1.4-0.9,1.7-1.6l4.9-12.5
		C519.5,460.1,518.9,458.6,517.6,458z M531.5,451.4l-14.1-5.8c-1.4-0.6-3,0.1-3.6,1.5c-0.6,1.4,0.1,3,1.5,3.6l11.8,4.8l-3.7,12.7
		c-0.4,1.5,0.4,3,1.9,3.4c0.3,0.1,0.5,0.1,0.8,0.1c1.2,0,2.3-0.8,2.7-2l4.4-15.1C533.5,453.4,532.8,452,531.5,451.4z M546.6,443.8
		l-14.1-5.8c-1.4-0.6-3,0.1-3.6,1.5c-0.6,1.4,0.1,3,1.5,3.6l11.8,4.8l-3.7,12.7c-0.4,1.5,0.4,3,1.9,3.4c0.3,0.1,0.5,0.1,0.8,0.1
		c1.2,0,2.3-0.8,2.7-2l4.4-15.1C548.6,445.8,548,444.3,546.6,443.8z M401.4,192.4c-6.4-0.4-13-0.7-20-1l-13.3-0.1l16.5,18.6
		L401.4,192.4z M463.3,197.7c-4.5-0.5-14-1.6-27.1-2.8l12.5,19L463.3,197.7z M268.1,193.9c-11,1.1-21.8,2.4-32.5,4.1l16.9,16
		L268.1,193.9z M333.2,190.7c-9.9,0.1-20,0.3-30.1,0.8l16,17.8L333.2,190.7z M335.6,104.9c0.2,8.6,0.5,17.5,1,26.4
		c6.7-3.1,18.5-8.8,21.9-12.2c0.2-0.2,0.4-0.3,0.6-0.4c0.6-5.9,1-12.4,1-19.4c0-6.7-1-12.5-2.5-17.7
		C350.7,91.6,339.6,101.5,335.6,104.9z M337.4,142.1c2.9-1.1,12.7-5,19.1-8.9c0.2-0.1,0.4-0.2,0.7-0.2c0.4-2,0.7-4.2,1-6.4
		c-6.9,4.5-17.7,9.4-21.1,10.9C337.2,139,337.3,140.5,337.4,142.1z M330.3,120c-0.2-4.8-0.3-9.6-0.4-14.3
		c-6.6-4.3-14.9-12.3-19.7-17.2c-1.2,6.1-1.7,12.3-1.6,18.3C311.8,108.6,326.2,118.3,330.3,120z M332.9,155.5
		c-1-9.7-1.8-19.6-2.3-29.4c-0.1,0-0.2,0-0.3,0c-4.9-1-16.6-9.3-21.5-12.9c1.6,21.4,9.4,39.9,10.6,42.7
		C322.9,155.7,327.5,155.5,332.9,155.5z M351.2,156c0.7-1.9,2.6-7.3,4.4-15.7c-7.6,4-16.6,7.4-17,7.5c-0.2,0.1-0.5,0.1-0.7,0.1
		c0.2,2.5,0.5,5,0.8,7.6C342.6,155.6,346.8,155.7,351.2,156z M561.5,557.7c-6.2-9.3-33-7.9-38.7-7.5c-1.2,1.5-2.4,2.9-3.7,4.3
		c4.4,4.1,3.6,8.4,3,11.5l-0.4,1.9c-1,3.6-2.8,12.9-4.5,21.8c10.7,1.9,21.3,1.7,27.1-4.3c9.2-9.7-6.9-14.3-6.9-14.3
		S569.9,570.2,561.5,557.7z"/>
	<path fill="#7F8082" d="M215.6,501.5c-7.1-13-12.9-27-17.5-41.5c4.2-0.2,8.8-1.3,13.7-3.2c6.3-2.5,11.2-7.7,14.2-11.5
		c3.3,7.4,11.5,19.5,29.4,17.3c10.9-1.4,18.6-7.1,22.4-10.7c3.7,5.4,12.7,15.3,29.1,15.2c15-0.2,22.7-6.8,26.1-11.2
		c4.2,4.8,13.2,13,26.7,13c0.2,0,0.4,0,0.6,0c14.2-0.3,21.5-10.7,24.5-16.3c4.5,3.3,13.8,8.9,25.3,9.4c12.7,0.6,22.4-9,26.6-14.1
		c1.9,10.4,5.1,20.9,9.7,30.7c2.8,6,6.1,11.7,9.8,17.1c-4.3,4.3-11.2,9.7-19.5,9.2c-14-0.7-24.6-10.2-24.7-10.3
		c-0.7-0.6-1.7-0.9-2.6-0.6c-0.9,0.2-1.6,0.9-1.9,1.8c-0.1,0.2-5.5,15.8-20.9,16.1c-15.8,0.3-25-13.6-25.1-13.7
		c-0.5-0.9-1.5-1.3-2.6-1.3c-1,0.1-1.9,0.7-2.3,1.7c-0.2,0.5-5.2,11.4-23.4,11.6c-18.3,0.2-25.7-14.7-26-15.3
		c-0.4-0.9-1.2-1.4-2.2-1.6c-0.9-0.1-1.9,0.3-2.5,1c-0.1,0.1-8.2,9.8-21.5,11.4c-20.2,2.5-25-17.6-25.2-18.4c-0.2-1.1-1.2-2-2.3-2.1
		c-1.1-0.2-2.3,0.4-2.8,1.4c-0.1,0.1-6,10.3-14.6,13.8C227.8,503.4,220.9,503.9,215.6,501.5z M318.9,318c0,24.2-21.1,44-47.1,44
		c-25.7,0-46.6-19.9-46.6-44.5c0-25.5,21.5-47.9,45.9-47.9C296.1,269.6,318.9,292.7,318.9,318z M298.5,284.7l-4.5,6.4
		c4.2,3.5,7.6,8,9.9,13l7.5-2.3C308.5,295.2,304,289.4,298.5,284.7z M274.2,274.5l0.4,8.7c5.4,0.4,10.5,2.1,15,4.8l4.5-6.5
		C288.2,277.6,281.4,275,274.2,274.5z M243.6,317c0,15.7,12.8,28.5,28.5,28.5c16.2,0,29.4-12.4,29.4-27.6
		c0-15.7-13.7-29.4-29.4-29.4C256.4,288.5,243.6,301.3,243.6,317z M251.8,279.8l5.2,6.9c3.8-1.9,7.9-3.1,12.3-3.5l-0.4-8.8
		C262.8,274.9,257,276.8,251.8,279.8z M236.1,295.5l7.1,3.9c2.4-3.9,5.5-7.2,9.1-9.9l-5-6.6C242.9,286.3,239,290.6,236.1,295.5z
		 M229.8,315l8.5-0.5c0.3-3.6,1.1-7.1,2.4-10.3l-7.2-3.9C231.5,304.9,230.2,309.8,229.8,315z M232.5,332.2l7.6-4.1
		c-0.9-2.6-1.5-5.4-1.8-8.2l-8.5,0.5C230.1,324.5,231,328.5,232.5,332.2z M243.2,347.4l4.9-6.5c-2.3-2.3-4.3-4.9-5.8-7.8l-7.5,4
		C237,340.9,239.9,344.4,243.2,347.4z M262.5,349.5c-3.8-1.1-7.2-2.9-10.3-5.1l-4.8,6.3c4.1,2.8,8.7,4.9,13.7,6.1L262.5,349.5z
		 M281,357.4l-2.3-7.1c-2.2,0.4-4.4,0.6-6.7,0.6c-1.4,0-2.9-0.1-4.3-0.3l-1.4,7.3c1.9,0.2,3.7,0.4,5.7,0.4
		C275.2,358.3,278.1,357.9,281,357.4z M300,348.6l-5.7-5.4c-3.1,2.4-6.6,4.3-10.4,5.6l2.3,7.1C291.3,354.3,296,351.8,300,348.6z
		 M312.2,332.2l-7.4-3.4c-1.5,4-3.7,7.6-6.6,10.7l5.7,5.4C307.5,341.2,310.3,336.9,312.2,332.2z M313.9,327c0.7-2.8,1.1-5.7,1.1-8.7
		c0-3.9-0.6-7.7-1.7-11.4l-7.5,2.3c0.7,2.8,1.2,5.7,1.2,8.7c0,1.9-0.2,3.8-0.5,5.6L313.9,327z M457.6,318c0,24.2-21.1,44-47.1,44
		c-25.7,0-46.6-19.9-46.6-44.5c0-25.5,21.5-47.9,45.9-47.9C434.8,269.6,457.6,292.7,457.6,318z M437.1,284.7l-4.5,6.4
		c4.2,3.5,7.6,8,9.9,13l7.5-2.3C447.1,295.2,442.6,289.4,437.1,284.7z M412.9,274.5l0.4,8.7c5.4,0.4,10.5,2.1,15,4.8l4.5-6.5
		C426.8,277.6,420,275,412.9,274.5z M382.3,317c0,15.7,12.8,28.5,28.5,28.5c16.2,0,29.4-12.4,29.4-27.6c0-15.7-13.7-29.4-29.4-29.4
		C395,288.5,382.3,301.3,382.3,317z M390.4,279.8l5.2,6.9c3.8-1.9,7.9-3.1,12.3-3.5l-0.4-8.8C401.5,274.9,395.6,276.8,390.4,279.8z
		 M374.7,295.5l7.1,3.9c2.4-3.9,5.5-7.2,9.1-9.9l-5-6.6C381.5,286.3,377.7,290.6,374.7,295.5z M368.5,315l8.5-0.5
		c0.3-3.6,1.1-7.1,2.4-10.3l-7.2-3.9C370.2,304.9,368.9,309.8,368.5,315z M371.2,332.2l7.6-4.1c-0.9-2.6-1.5-5.4-1.8-8.2l-8.5,0.5
		C368.7,324.5,369.7,328.5,371.2,332.2z M381.9,347.4l4.9-6.5c-2.3-2.3-4.3-4.9-5.8-7.8l-7.5,4C375.7,340.9,378.5,344.4,381.9,347.4
		z M401.2,349.5c-3.8-1.1-7.2-2.9-10.3-5.1l-4.8,6.3c4.1,2.8,8.7,4.9,13.7,6.1L401.2,349.5z M419.7,357.4l-2.3-7.1
		c-2.2,0.4-4.4,0.6-6.7,0.6c-1.4,0-2.9-0.1-4.3-0.3l-1.4,7.3c1.9,0.2,3.7,0.4,5.7,0.4C413.8,358.3,416.8,357.9,419.7,357.4z
		 M438.7,348.6l-5.7-5.4c-3.1,2.4-6.6,4.3-10.4,5.6l2.3,7.1C430,354.3,434.7,351.8,438.7,348.6z M450.9,332.2l-7.4-3.4
		c-1.5,4-3.7,7.6-6.6,10.7l5.7,5.4C446.2,341.2,449,336.9,450.9,332.2z M452.5,327c0.7-2.8,1.1-5.7,1.1-8.7c0-3.9-0.6-7.7-1.7-11.4
		l-7.5,2.3c0.7,2.8,1.2,5.7,1.2,8.7c0,1.9-0.2,3.8-0.5,5.6L452.5,327z M473.6,553.8c2.1,3.3,2.4,7.3,0.9,11.1
		c-1.7,4.1-3.1,8-4.2,11.8c0.1,0,0.1,0,0.2,0h0.5c1.3,0,2.8,0,4.5,0.1c0.6,0,1.2,0.1,1.7,0.2c3.3-1.6,6.5-3.4,9.6-5.2
		c1-6.2,2.4-11.6,4.8-15.5l0.6-1l0.9-0.8c4.4-3.6,10.8-4,13.3-4c1.6,0,3.9,0.2,6.4,0.8c3.1-3.3,5.9-6.8,8.3-10.4
		c-0.3,0-0.5,0.1-0.8,0.1c-2.3,0-4.1-0.5-4.5-0.6l-0.3-0.1c-4.8-1.6-9.4-3.5-13.8-5.7c0.1,0.6,0,1.2-0.4,1.8
		c-0.5,0.7-11.7,17.2-28.1,17L473.6,553.8z M316.9,561.1c-0.5,3-1.4,7.6-2.9,13.9c-0.6,2.8-1.1,5.2-1.6,7.4c6.6,2.4,13.3,4.5,20,6.3
		c0.6-0.1,1.1-0.2,1.6-0.3c0.9-0.1,1.8-0.2,2.8-0.2c4.9,0,11.1,1.7,15,4.1c0.3,0.2,0.6,0.5,0.9,0.7c9.9,1.6,19.8,2.5,29.6,2.8
		c3.7-3.6,8.5-5,12.7-5.6c0.9-0.1,1.8-0.2,2.8-0.2c2.3,0,5,0.4,7.5,1c0.1-2.7,1.2-5.4,3.3-7.4c2.8-2.8,7.5-3.8,16.8-5.1l0.3,0
		c2.9-0.3,5.1-0.6,7-0.9c2-0.3,4-0.6,6.4-0.8c2.1-6.4,4.2-11.6,8.1-17.4c2.8-4.2,6.8-7.3,11.7-9c-5.1-2-9.1-4.5-11.6-6.4
		c-2.9,5.6-10.3,16.1-24.5,16.3c-0.2,0-0.4,0-0.6,0c-13.4,0-22.5-8.2-26.7-13c-3.4,4.4-11.1,11-26.1,11.2
		c-16.4,0.1-25.4-9.8-29.1-15.2c-3.8,3.5-11.6,9.3-22.4,10.7c-0.4,0-0.7,0-1,0.1C317.5,556.9,317.1,559.6,316.9,561.1z M281.4,568
		c0.1-0.5,0.2-1,0.3-1.5l0.5-2.8c0.3-1.2,0.5-2.5,0.6-3.8l0.2-1.1c1.2-4.5,3-11.1,11.1-13.3c-2.7-3-4.5-6.3-5.7-8.9
		c-3,3.8-7.9,9-14.2,11.5c-6.5,2.6-12.3,3.6-17.5,3.2c1.3,1,2.5,2.1,3.8,3.1C267.3,559.5,274.3,564,281.4,568z"/>
	<path d="M417.4,229.5l11.4,16.7l-26.6-2.4L417.4,229.5z M483.8,254.5c0,0-2.7-9-6-19.9l-14,16.5
		C470.4,252.1,477.1,253.2,483.8,254.5z M351.2,228.5l-11.8,13.2h23.7L351.2,228.5z M212.5,252c6.1-1,14.1-2.1,23.7-3.3l-14.6-14
		L212.5,252z M274.8,244.8c7.9-0.6,16.2-1.1,25-1.6l-13-13.3L274.8,244.8z M591,511.7c-1.8,1-3.9,1.6-6.2,1.7
		c0,4.1-1.2,8.3-4.6,11.8c-2.8,2.8-6.7,4.2-11.6,4.2c-3,0-6.3-0.5-9.4-1.3c-0.3,2.5-1.1,4.2-1.3,4.6c-0.2,0.5-0.5,1-0.9,1.4
		c-3.1,3.6-7.4,5.6-12.6,5.7c13.5,7.1,41,19.1,34.7-5c0,0,22.1,14.7,27.3,4.1C608.7,534.2,597.2,519.2,591,511.7z M288.8,315.7
		c0,8.6-7,15.6-15.6,15.6s-15.6-7-15.6-15.6s7-15.6,15.6-15.6S288.8,307,288.8,315.7z M284,312.5c0-2.7-2.2-4.9-4.9-4.9
		s-4.9,2.2-4.9,4.9c0,2.7,2.2,4.9,4.9,4.9S284,315.2,284,312.5z M427,315.7c0,8.6-7,15.6-15.6,15.6c-8.6,0-15.6-7-15.6-15.6
		s7-15.6,15.6-15.6C420.1,300.1,427,307,427,315.7z M422.2,312.5c0-2.7-2.2-4.9-4.9-4.9c-2.7,0-4.9,2.2-4.9,4.9
		c0,2.7,2.2,4.9,4.9,4.9C420,317.4,422.2,315.2,422.2,312.5z M335.5,97.2c5.7-5.2,14.9-14.4,19.4-22.6C349.3,62.2,340.5,55,336.2,52
		C335.7,64.1,335.3,79.9,335.5,97.2z M329.7,98.4c-0.2-17.3,0.1-33.2,0.6-45.4c-9.6,8.5-15.4,18.4-18.5,28.8
		C314.9,85,322.9,93.2,329.7,98.4z M398.8,106.6c4.8-13,10.3-26.5,16.2-38.2c-9.4,4.3-16.8,10.5-22.5,17.6
		C393.5,91.5,395.6,100.7,398.8,106.6z M426.9,101c0.5-0.4,1.2-0.5,1.8-0.5c0.7-16.8-4.6-27.7-7.2-32c-6.3,12.1-12.2,26.6-17.4,40.6
		C410,108.1,419.9,106,426.9,101z M272,111.2c3.8-6.8,6.2-18.4,7-23.4c-6.4-8.3-14.9-15.4-26.2-20C259.8,80.3,266.4,96.1,272,111.2z
		 M247.8,70.8c-3,5.7-7.4,17.4-5.8,34.3c7.1,5.1,18,7.2,24.5,8.1C261,98.4,254.5,82.8,247.8,70.8z M310,560.1
		c0.6-4.3,0.2-6.1-3.7-7.4c-2.9-0.9-6.4-1.2-10-0.6c-4.1,0.8-5.2,3.1-6.7,8.5c-0.2,1.4-0.4,3.1-0.8,4.7c-1.4,8.2-3.1,18.3-4.8,31.3
		c-0.6,3.7-1.5,14.1-2.4,20.9c-0.2,2.2-0.3,4.2-0.5,5c0,0.8-0.4,1.4-0.9,1.7c-0.5,0.1-1.1,0.1-1.8-0.2c-0.6-0.2-1.1-0.4-1.7-0.7
		c-5.4-2.3-14.3-6.2-25.9-7.9l-0.2,0c-1.6-0.5-2.4-1.8-2-3.4c0.9-3.8,4.8-31.8,4.8-41.6c0.1-3.7-1.5-5.4-4.8-5.6
		c-4.2-0.4-11.7,2.9-13.1,8c-3.3,14.1-3.6,27.9-3.8,35.3c0,1.3-0.1,2.3-0.1,3.1c0,1.3-0.2,2.4-0.9,3c-0.7,0.6-1.6,0.8-3.1,0.7
		c-9.7,0.8-16.3,5-15.9,10c0.1,2.4,1,3.6,3.6,4c2.1,0.5,7.3-0.9,10-1.8c0.8-0.1,1.5-0.4,1.8-0.4c0.8-0.1,1.3-0.3,1.9-0.3
		c0.5,0,0.8,0.2,1.1,0.4c0.6,0.5,0.8,1.5,0.9,2.8c0.1,3.4,0.3,6.6,0.4,9.8c0.1,3.1,0.1,6.1,0.4,9.2c0.3,10.3,2.3,20.2,4.3,28.3
		c0.4,2.1,2,4.2,4.2,5.8c2.2,1.5,4.6,2.4,6.9,2.1c1.3,0,2.3-0.6,2.9-1.4c0.5-0.8,0.7-1.9,0.4-3.2c-0.2-0.3-0.1-0.8-0.3-1.3
		c-0.3-0.8-0.6-1.8-0.7-2.8c-0.4-2.9-0.6-5.8-1-8.7c-1.2-9.5-2.5-19.4-2.2-29.4c0-0.6,0-1.4,0.1-2.3c0.2-1.6,0.3-3.4,0.3-5
		c0.2-1.9,0.2-2.9,0.9-3.4c0.7-0.6,1.8-0.6,3.6-0.4c10.3,0.9,19.7,4.8,28.3,8.9c1.3,0.5,1.7,1.5,1.7,3.1c-0.4,12.7,0,23,1.2,34.8
		c0.5,5,2.5,8.6,6,10.8c1.4,0.8,3.4,0.7,5-0.2c1.5-0.9,2.2-2.2,2.2-3.6c-0.2-3.1-0.2-5.8-0.1-8.7c0.1-1.8,0.1-3.5,0-5.6
		c0.1-7.6,0.4-12.2,0.9-19c1.1-16.9,4.4-40.8,5.8-48.3c0.2-1.6,0.6-3.2,0.8-4.8c1.2-6.9,2.1-11.9,4.2-21
		C308.7,567.2,309.6,562.7,310,560.1z M488,635.1c-2.1,6.1-8.7,17.2-11.6,21.9c-3.6,5.7-8.6,11.4-15.4,15.5
		c-4.4,2.8-9.6,3.9-14.4,3.3c-5.3-0.8-9.9-3.5-12.9-10.2c-3.4-7.9-3-17-1.8-26.2c-3.3,2-8.2,4.2-14.5,4.5c-2.9,0.1-3.5,0.1-4.9,3.2
		c-3.5,7.6-8,15.1-14.9,19.7c-6.2,4.2-14.5,4.9-20.2,0.9c-5.4-3.7-8.4-9.6-9.2-16.7c-0.3-3.9,0-8.2,1-12.4
		c-3.2,1.7-7.5,3.3-12.8,3.5c-2.9,0.1-3.5,0.1-4.9,3.2c-3.4,7.6-8,15.1-14.9,19.7c-6.2,4.2-14.5,4.9-20.2,0.9
		c-5.4-3.7-8.4-9.6-9.2-16.7c-0.8-9.5,2.1-21.7,10.2-28.7c2.2-1.9,5.1-4.7,4.9-7.6c-0.3-2.4,0.1-4.8,0.7-7.2
		c1.5-6.9,5.3-9.4,12.2-10.4c3.7-0.5,9.8,0.9,13.1,3c8.2,5.2,11.1,17.7,8.3,34.4c-0.2,1.6,0.1,2.4,1.9,2.5c1.9-0.1,3.7-0.5,5.2-1.1
		c0,0,5-2.1,9.2-4.9c1.5-2.5,3.3-4.8,5.4-6.7c2.2-1.9,5.1-4.7,4.9-7.6c-0.3-2.4,0.1-4.8,0.7-7.2c1.5-6.9,5.3-9.4,12.2-10.4
		c3.7-0.5,9.8,0.9,13.1,3c8.2,5.2,11.1,17.7,8.3,34.4c-0.2,1.6,0.1,2.4,1.9,2.5c1.9-0.1,3.7-0.5,5.2-1.1c0,0,4.4-1.8,8.4-4.4
		c0.2-1.2,0.4-2.4,0.6-3.6c1.6-11.4,4.4-19.5,6.9-30.4c0.2-0.8,1.8-5.7,0.8-5.8c-7.6-0.1-13.1,0.7-20.4,2.1c-2.4,0.4-6.3,1.7-8-0.4
		c-1.1-1.3-0.7-3.6,0.6-4.8c1.5-1.6,8-2.5,12.8-3.2c6.5-0.6,9.2-1.3,14.2-1.7c3.5,0.1,3.9-0.7,4.8-3.7c2-6.2,3.9-11.2,7.6-16.7
		c2.4-3.6,5.8-6,10.2-7c1.6-0.3,3.5-0.1,4.6,1.3c0.9,1.5,1,3.1,0.3,4.8c-2.4,5.7-4.4,11.5-5.7,17.6c-0.6,3.2-0.6,3.2,2.2,3.5
		c3.4,0.4,6,0.2,10.8,0.3c2.9,0.1,5.3,1,5,4.2c-0.4,3-2.5,3.1-5.9,3c-3.9-0.1-6.4,0-12.4-0.2c-3.1,0.1-3.2,0.4-4.3,2.6
		c-2.7,8.3-3.2,11.8-5.1,20.2c-2.9,12.5-7.4,43.5-5.5,48.7c1.5,3.6,3.9,5.4,9.1,3.3c3.4-1.2,7.7-5.4,10.1-8.2c5-5.7,7-9,11.4-15.3
		c1.8-2.5,7.3-14,10.4-13.1C490.6,629.6,489,632.4,488,635.1z M344.1,638.7c-3-1.2-3.7-1.6-5.6-2.7c-3.6-2.2-5.5-3.9-8-6.4
		c-3-2.8-4.1-2.9-5.5,1.4c-0.5,1.6-4,8.9-3.2,16.7c0.5,6,5.7,9.2,11.4,7.3c6.7-2.5,8.5-8,11.7-13.4
		C345.7,640.1,345.4,639.3,344.1,638.7z M344.4,606.8c-3-2.3-7-1.5-9,3c-3.1,8,1.9,19.1,10.6,22.4c1.8,0.5,2.2,0.5,2.8-1.2
		C351.7,621,348,609.4,344.4,606.8z M405.1,640.4c-3-1.2-3.7-1.6-5.6-2.7c-3.6-2.2-5.5-3.9-8-6.4c-3-2.8-4.1-2.9-5.5,1.4
		c-0.5,1.6-4,8.9-3.2,16.7c0.5,6,5.7,9.2,11.4,7.3c6.7-2.5,8.5-8,11.7-13.4C406.7,641.9,406.4,641.1,405.1,640.4z M405.4,608.5
		c-3-2.3-7-1.5-9,3c-3.1,8,1.9,19.1,10.6,22.4c1.8,0.5,2.2,0.5,2.8-1.2C412.8,622.8,409.1,611.2,405.4,608.5z M514.2,559.4
		c-3.8-2.9-13-2.5-16.6,0.5c-4.9,8.1-5.3,26.9-5.8,36.7c-0.7,19.6-0.6,37.5,1.2,52.9c0.5,3.9,2.5,13.6,6.4,13.7
		c2.1,0.1,3.6-3.1,4.1-8.1c1.7-29.1,5.1-53.4,6.2-61.7c1.2-6.4,4-22,5.5-27.2C515.9,562,516.4,561.2,514.2,559.4z M491.5,673.4
		c-4.2,5.8-1.9,13.8,4.8,16.3c2.1,0.9,4,0.9,5.8-0.2c3.4-1.8,5.5-4.7,5.8-9.3c0.2-1.9-0.8-4.2-2.1-6.3
		C502.9,669.6,495.5,667.9,491.5,673.4z"/>
	<path fill="#938072" d="M220,645.6c0,0,0.8,14.8,2.8,25.9c0,0-59.2,10.2-74,18.5c0,0-6.5-7.4-2.8-12.9s28.7-12,28.7-12l-20.3-15.7
		c0,0,1.8-8.3,7.4-9.2c0,0,12,7.4,16.6,9.2C183,651.1,211.7,646.5,220,645.6z M185,391.5c-4-47.5,1.3-94.7,11.6-129.6l2.9-0.6
		c0.6-0.1,60.7-12.2,143.6-12.2c48.7,0,95.6,4.1,139.3,12.2l6.9,1.3c11.8,31.5,14.4,64.2,15.1,88.8c-14.1,0.9-50,6.6-63.9,42.4
		c-1.2,3.2-2.3,6.5-3.1,10c-4.2,4.4-11.3,9.9-19.7,9.4c-14-0.7-24.6-10.2-24.7-10.3c-0.7-0.6-1.7-0.9-2.6-0.6
		c-0.9,0.2-1.6,0.9-1.9,1.8c-0.1,0.2-5.5,15.8-20.9,16.1c-15.9,0.3-25-13.6-25.1-13.7c-0.5-0.9-1.5-1.3-2.6-1.3
		c-1,0.1-1.9,0.7-2.3,1.7c-0.2,0.5-5.2,11.4-23.4,11.6c-18.4,0.2-25.7-14.7-26-15.3c-0.4-0.9-1.2-1.4-2.2-1.6
		c-0.9-0.1-1.9,0.3-2.5,1c-0.1,0.1-8.2,9.8-21.5,11.4c-20.2,2.5-25-17.6-25.2-18.4c-0.2-1.1-1.2-2-2.3-2.1c-1.1-0.2-2.3,0.4-2.8,1.4
		c-0.1,0.1-6,10.3-14.6,13.8c-9.2,3.7-16.6,3.9-22.1,0.6c-8.4-5-9.8-16.7-9.8-16.9C185.3,392,185.1,391.7,185,391.5z M357.4,317.4
		c0,27.9,23.7,50.5,52.8,50.5c29.4,0,53.3-22.5,53.3-50c0-28.6-25.8-54.6-54.1-54.6C381.8,263.4,357.4,288.6,357.4,317.4z
		 M324,346.5c-1,0.1-1.9,0.8-2.3,1.7c-0.4,0.9-0.2,2,0.4,2.8l17.1,21.3c0.5,0.7,1.3,1,2.2,1c0,0,0.1,0,0.1,0c0.9,0,1.7-0.5,2.2-1.2
		l14.3-21.7c0.5-0.8,0.6-1.8,0.2-2.6c-0.4-0.9-1.1-1.5-2.1-1.6c-2.8-0.5-6.5-0.8-11.2-0.8C335.1,345.3,324.5,346.4,324,346.5z
		 M218.4,317.2c0,28.1,23.8,50.9,53.1,50.9c29.6,0,53.7-22.6,53.7-50.4c0-28.7-25.9-54.9-54.4-54.9
		C242.9,262.8,218.4,288.2,218.4,317.2z M552.6,650.7c4.3,2.5,15.2,11.4,15.2,11.4c5.6-0.2,8.6-8.1,8.6-8.1l-18-18.4
		c0,0,25.6-3,30-8c4.4-5-1-13.2-1-13.2c-15.8,6.2-70.2,7.8-70.2,7.8c0.4,11.3-0.8,26-0.8,26C524.9,648.5,548.3,648.3,552.6,650.7z"
		/>
	<path fill="#A0D292" d="M624.3,696.9c0,0-17.1,4.2-28.6-4c-11.5-8.2-13.1-25.8-13.1-25.8s17.1-4.2,28.6,4
		C622.7,679.4,624.3,696.9,624.3,696.9z M567,584.7c-5.3,13.1,2.8,28.8,2.8,28.8s16.7-5.6,22-18.8c5.3-13.1-2.8-28.8-2.8-28.8
		S572.3,571.6,567,584.7z"/>
</g>
</svg>
